<?xml version="1.0" standalone="no"?><svg xmlns:xlink="http://www.w3.org/1999/xlink" xmlns="http://www.w3.org/2000/svg" viewBox="0 0 1000 416.66816763268844" preserveAspectRatio="xMaxYMax slice"><g transform="scale(1.2007728173852692)"><rect x="0" y="0" width="832.8000000000001" height="347" fill="#ffffff"/><circle cx="34.7" cy="34.7" r="6.94" fill="#FF3565"/><circle cx="104.1" cy="34.7" r="6.94" fill="#FF3565"/><circle cx="173.5" cy="34.7" r="6.94" fill="#FF3565"/><circle cx="242.9" cy="34.7" r="6.94" fill="#183FE1"/><circle cx="312.3" cy="34.7" r="6.94" fill="#FF3565"/><circle cx="381.7" cy="34.7" r="6.94" fill="#FF3565"/><circle cx="451.1" cy="34.7" r="6.94" fill="#FF3565"/><circle cx="520.5" cy="34.7" r="6.94" fill="#183FE1"/><circle cx="589.9000000000001" cy="34.7" r="6.94" fill="#FF3565"/><circle cx="659.3000000000001" cy="34.7" r="6.94" fill="#183FE1"/><circle cx="728.7" cy="34.7" r="6.94" fill="#FF3565"/><circle cx="798.1" cy="34.7" r="6.94" fill="#FF3565"/><circle cx="34.7" cy="104.1" r="6.94" fill="#183FE1"/><circle cx="104.105" cy="104.105" r="9.605" fill="#FF3565"/><circle cx="173.5" cy="104.1" r="12.27" fill="#183FE1"/><circle cx="242.905" cy="104.105" r="14.935" fill="#183FE1"/><circle cx="312.3" cy="104.1" r="17.6" fill="#183FE1"/><circle cx="381.705" cy="104.105" r="20.265" fill="#183FE1"/><circle cx="451.10499999999996" cy="104.105" r="20.265" fill="#183FE1"/><circle cx="520.505" cy="104.105" r="20.265" fill="#FF3565"/><circle cx="589.9" cy="104.1" r="17.6" fill="#183FE1"/><circle cx="659.305" cy="104.105" r="14.935" fill="#183FE1"/><circle cx="728.6999999999999" cy="104.1" r="12.27" fill="#FF3565"/><circle cx="798.105" cy="104.105" r="9.605" fill="#FF3565"/><circle cx="34.7" cy="173.5" r="6.94" fill="#FF3565"/><circle cx="104.1" cy="173.5" r="12.27" fill="#183FE1"/><circle cx="173.5" cy="173.5" r="17.6" fill="#183FE1"/><circle cx="242.9" cy="173.5" r="22.93" fill="#183FE1"/><circle cx="312.3" cy="173.5" r="28.26" fill="#183FE1"/><circle cx="381.70000000000005" cy="173.5" r="33.59" fill="#FF3565"/><circle cx="451.1" cy="173.5" r="33.59" fill="#183FE1"/><circle cx="520.5" cy="173.5" r="33.59" fill="#183FE1"/><circle cx="589.9" cy="173.5" r="28.26" fill="#FF3565"/><circle cx="659.3" cy="173.5" r="22.93" fill="#FF3565"/><circle cx="728.7" cy="173.5" r="17.6" fill="#183FE1"/><circle cx="798.1" cy="173.5" r="12.27" fill="#FF3565"/><circle cx="34.7" cy="242.9" r="6.94" fill="#FF3565"/><circle cx="104.1" cy="242.9" r="12.27" fill="#183FE1"/><circle cx="173.5" cy="242.9" r="17.6" fill="#183FE1"/><circle cx="242.9" cy="242.9" r="22.93" fill="#FF3565"/><circle cx="312.3" cy="242.89999999999998" r="28.26" fill="#FF3565"/><circle cx="381.70000000000005" cy="242.9" r="33.59" fill="#183FE1"/><circle cx="451.1" cy="242.9" r="33.59" fill="#183FE1"/><circle cx="520.5" cy="242.9" r="33.59" fill="#183FE1"/><circle cx="589.9" cy="242.89999999999998" r="28.26" fill="#183FE1"/><circle cx="659.3" cy="242.9" r="22.93" fill="#FF3565"/><circle cx="728.7" cy="242.9" r="17.6" fill="#183FE1"/><circle cx="798.1" cy="242.9" r="12.27" fill="#183FE1"/><circle cx="34.7" cy="312.3" r="6.94" fill="#183FE1"/><circle cx="104.105" cy="312.305" r="9.605" fill="#FF3565"/><circle cx="173.5" cy="312.29999999999995" r="12.27" fill="#183FE1"/><circle cx="242.905" cy="312.305" r="14.935" fill="#FF3565"/><circle cx="312.3" cy="312.3" r="17.6" fill="#183FE1"/><circle cx="381.705" cy="312.305" r="20.265" fill="#183FE1"/><circle cx="451.10499999999996" cy="312.305" r="20.265" fill="#183FE1"/><circle cx="520.505" cy="312.305" r="20.265" fill="#183FE1"/><circle cx="589.9" cy="312.3" r="17.6" fill="#FF3565"/><circle cx="659.305" cy="312.305" r="14.935" fill="#183FE1"/><circle cx="728.6999999999999" cy="312.29999999999995" r="12.27" fill="#183FE1"/><circle cx="798.105" cy="312.305" r="9.605" fill="#183FE1"/></g></svg>